<svg width="22" height="37" viewBox="0 0 22 37" fill="none" xmlns="http://www.w3.org/2000/svg">
<path d="M11.0051 2.93302C14.1307 6.9011 15.7993 11.7944 15.7388 16.8155V18.0141L16.77 18.6416C18.1025 19.4482 19.0962 20.6993 19.5702 22.1669C19.154 21.8605 18.7187 21.5803 18.2668 21.3278L15.5168 19.7838L15.0226 22.9001C14.9798 23.1755 14.9225 23.4485 14.8508 23.718H7.14503C7.03044 23.3655 6.93735 23.0129 6.85141 22.6463L6.22836 19.8261L3.6932 21.2362C3.26967 21.473 2.86075 21.7344 2.4686 22.0188C2.95176 20.5682 3.92475 19.3242 5.22576 18.4935L6.20688 17.866V16.7521C6.22458 11.7513 7.91319 6.89523 11.0122 2.93302H11.0051ZM11.0122 0C10.8515 0.000390307 10.6963 0.0579856 10.5754 0.162162L10.5109 0.218566C6.3813 4.76564 4.08818 10.6454 4.0656 16.745C2.31319 17.8643 1.01603 19.5543 0.400784 21.5197C-0.214458 23.485 -0.108651 25.6007 0.699715 27.4971C1.55128 25.6455 2.97483 24.1058 4.76742 23.0975C4.9472 23.8642 5.18662 24.6161 5.48357 25.3467C5.52123 25.4871 5.6047 25.6114 5.72115 25.7006C5.8376 25.7898 5.98058 25.8388 6.1281 25.8402H16.0682C16.2687 25.8402 16.4692 25.6498 16.5695 25.3537C16.8593 24.6592 17.0614 23.9322 17.1711 23.1892C18.9671 24.1932 20.3918 25.7342 21.2388 27.5887C22.0959 25.7017 22.2286 23.5727 21.6123 21.5967C20.9959 19.6206 19.6724 17.9319 17.8872 16.8437C17.958 10.7082 15.6771 4.77179 11.4992 0.218566C11.437 0.150085 11.3608 0.0952397 11.2757 0.0575871C11.1906 0.0199344 11.0984 0.000314749 11.0051 0L11.0122 0Z" fill="#4EA8DE"/>
<path d="M11.005 16.1598C10.4549 16.1598 9.91716 15.9995 9.45951 15.699C9.00186 15.3986 8.6448 14.9715 8.43333 14.4716C8.22187 13.9716 8.16546 13.4213 8.27122 12.8898C8.37698 12.3584 8.64018 11.8697 9.02763 11.4853C9.41509 11.1009 9.90946 10.838 10.4484 10.7298C10.9874 10.6216 11.5468 10.6729 12.0562 10.8773C12.5656 11.0816 13.0022 11.4298 13.3109 11.8781C13.6195 12.3263 13.7865 12.8545 13.7908 13.396C13.7993 13.7469 13.7376 14.0961 13.609 14.4235C13.4805 14.751 13.2877 15.0503 13.0416 15.3043C12.7955 15.5583 12.501 15.7622 12.1749 15.9041C11.8488 16.0461 11.4975 16.1234 11.141 16.1316C11.096 16.1387 11.05 16.1387 11.005 16.1316V16.1598Z" fill="#4EA8DE"/>
<path d="M14.8793 27.5958C14.7001 27.5901 14.5216 27.6198 14.3542 27.683C14.1868 27.7462 14.0339 27.8416 13.9045 27.9638C13.7751 28.086 13.6718 28.2323 13.6006 28.3943C13.5294 28.5563 13.4918 28.7307 13.49 28.9072V33.067C13.49 33.4297 13.6364 33.7776 13.8969 34.0342C14.1575 34.2907 14.5108 34.4348 14.8793 34.4348C15.2478 34.4348 15.6012 34.2907 15.8617 34.0342C16.1223 33.7776 16.2686 33.4297 16.2686 33.067V28.9636C16.2744 28.7877 16.2445 28.6126 16.1807 28.4482C16.117 28.2839 16.0206 28.1337 15.8973 28.0064C15.774 27.879 15.6262 27.7772 15.4625 27.7067C15.2988 27.6362 15.1224 27.5985 14.9438 27.5958H14.8793Z" fill="#5E60CE"/>
<path d="M7.14494 27.5958C6.96271 27.5863 6.7804 27.613 6.60886 27.6743C6.43732 27.7356 6.28005 27.8302 6.14642 27.9526C6.01279 28.0749 5.90553 28.2225 5.83101 28.3865C5.75648 28.5505 5.71623 28.7275 5.71265 28.9072V33.067C5.71265 33.4297 5.85902 33.7777 6.11957 34.0342C6.38012 34.2907 6.7335 34.4348 7.10197 34.4348C7.47044 34.4348 7.82382 34.2907 8.08437 34.0342C8.34492 33.7777 8.49129 33.4297 8.49129 33.067V28.9636C8.49702 28.7877 8.46713 28.6126 8.40338 28.4482C8.33963 28.2839 8.24329 28.1337 8.11998 28.0064C7.99666 27.879 7.84884 27.7772 7.68513 27.7067C7.52141 27.6362 7.34509 27.5985 7.16642 27.5958H7.14494Z" fill="#5E60CE"/>
<path d="M10.9047 27.5958C10.726 27.592 10.5483 27.623 10.3818 27.6869C10.2152 27.7507 10.0631 27.8463 9.93408 27.9681C9.80506 28.0899 9.70168 28.2355 9.62984 28.3966C9.558 28.5577 9.5191 28.7312 9.51538 28.9072V34.6392C9.51538 35.002 9.66176 35.3499 9.9223 35.6064C10.1829 35.8629 10.5362 36.007 10.9047 36.007C11.2732 36.007 11.6266 35.8629 11.8871 35.6064C12.1477 35.3499 12.294 35.002 12.294 34.6392V28.9988C12.2998 28.823 12.2699 28.6478 12.2061 28.4835C12.1424 28.3191 12.046 28.1689 11.9227 28.0416C11.7994 27.9143 11.6516 27.8124 11.4879 27.7419C11.3241 27.6714 11.1478 27.6337 10.9692 27.631L10.9047 27.5958Z" fill="#5E60CE"/>
</svg>
